<?xml version="1.0" encoding="UTF-8" standalone="no"?><svg xmlns:svg="http://www.w3.org/2000/svg" xmlns="http://www.w3.org/2000/svg" xmlns:xlink="http://www.w3.org/1999/xlink" version="1.0" width="64px" height="64px" viewBox="0 0 128 128" xml:space="preserve"><g><path d="M59.6 0h8v40h-8V0z" fill="#2667b5"/><path d="M59.6 0h8v40h-8V0z" fill="#d4e1f0" transform="rotate(30 64 64)"/><path d="M59.6 0h8v40h-8V0z" fill="#d4e1f0" transform="rotate(60 64 64)"/><path d="M59.6 0h8v40h-8V0z" fill="#d4e1f0" transform="rotate(90 64 64)"/><path d="M59.6 0h8v40h-8V0z" fill="#d4e1f0" transform="rotate(120 64 64)"/><path d="M59.6 0h8v40h-8V0z" fill="#bdd1e9" transform="rotate(150 64 64)"/><path d="M59.6 0h8v40h-8V0z" fill="#a8c2e1" transform="rotate(180 64 64)"/><path d="M59.6 0h8v40h-8V0z" fill="#92b3da" transform="rotate(210 64 64)"/><path d="M59.6 0h8v40h-8V0z" fill="#7da4d3" transform="rotate(240 64 64)"/><path d="M59.6 0h8v40h-8V0z" fill="#6794cb" transform="rotate(270 64 64)"/><path d="M59.6 0h8v40h-8V0z" fill="#5185c4" transform="rotate(300 64 64)"/><path d="M59.6 0h8v40h-8V0z" fill="#3b76bc" transform="rotate(330 64 64)"/><animateTransform attributeName="transform" type="rotate" values="0 64 64;30 64 64;60 64 64;90 64 64;120 64 64;150 64 64;180 64 64;210 64 64;240 64 64;270 64 64;300 64 64;330 64 64" calcMode="discrete" dur="720ms" repeatCount="indefinite"></animateTransform></g></svg>